<svg height="512pt" viewBox="0 0 512 512" width="512pt" xmlns="http://www.w3.org/2000/svg" xmlns:xlink="http://www.w3.org/1999/xlink"><linearGradient id="a" gradientUnits="userSpaceOnUse" x1="74.9807" x2="437.0193" y1="74.9807" y2="437.0193"><stop offset="0" stop-color="#ffd460"/><stop offset="1" stop-color="#ffa418"/></linearGradient><linearGradient id="b" gradientUnits="userSpaceOnUse" x1="117.4071" x2="394.5929" y1="117.4071" y2="394.5929"><stop offset="0" stop-color="#fb7b46"/><stop offset="1" stop-color="#ff562b"/></linearGradient><linearGradient id="c" gradientUnits="userSpaceOnUse" x1="165.6132" x2="346.3868" y1="165.6131" y2="346.3867"><stop offset="0" stop-color="#fff"/><stop offset="1" stop-color="#ffd488"/></linearGradient><path d="m512 256c0 141.386719-114.613281 256-256 256s-256-114.613281-256-256 114.613281-256 256-256 256 114.613281 256 256zm0 0" fill="url(#a)"/><path d="m452 256c0 108.246094-87.753906 196-196 196s-196-87.753906-196-196 87.753906-196 196-196 196 87.753906 196 196zm0 0" fill="url(#b)"/><path d="m364.464844 183.691406-36.15625-36.15625-72.308594 72.308594-72.308594-72.308594-36.15625 36.15625 72.308594 72.308594-72.308594 72.308594 36.15625 36.15625 72.308594-72.308594 72.308594 72.308594 36.15625-36.15625-72.308594-72.308594zm0 0" fill="url(#c)"/></svg>